<?xml version="1.0" encoding="UTF-8" standalone="no"?>
<svg width="256px" height="256px" viewBox="0 0 256 256" version="1.1" xmlns="http://www.w3.org/2000/svg" xmlns:xlink="http://www.w3.org/1999/xlink">
    <!-- Generator: Sketch 3.8.3 (29802) - http://www.bohemiancoding.com/sketch -->
    <title>2</title>
    <desc>Created with Sketch.</desc>
    <defs></defs>
    <g id="Manuals" stroke="none" stroke-width="1" fill="none" fill-rule="evenodd">
        <g id="2" fill="#000000">
            <path d="M128,256 C198.692448,256 256,198.692448 256,128 C256,57.307552 198.692448,0 128,0 C57.307552,0 0,57.307552 0,128 C0,198.692448 57.307552,256 128,256 Z M85.2734375,193 L85.2734375,177.457031 C90.4245049,165.417909 100.846276,152.300852 116.539062,138.105469 L126.691406,129.03125 C139.748763,117.231712 146.277344,105.522194 146.277344,93.9023438 C146.277344,86.4752233 144.046246,80.6354379 139.583984,76.3828125 C135.121722,72.1301871 128.997435,70.0039062 121.210938,70.0039062 C111.986933,70.0039062 101.115948,73.5676727 88.5976562,80.6953125 L88.5976562,65.0625 C100.397194,59.4921596 112.106713,56.7070312 123.726562,56.7070312 C136.184958,56.7070312 146.187462,60.0611644 153.734375,66.7695312 C161.281288,73.4778981 165.054688,82.3723404 165.054688,93.453125 C165.054688,101.419311 163.153014,108.486948 159.349609,114.65625 C155.546205,120.825552 148.463593,128.312456 138.101562,137.117188 L131.273438,142.957031 C117.078054,154.996154 108.872407,166.496039 106.65625,177.457031 L164.425781,177.457031 L164.425781,193 L85.2734375,193 Z" id="Combined-Shape"></path>
        </g>
    </g>
</svg>