<?xml version="1.0" encoding="UTF-8" standalone="no"?>
<svg reserveAspectRatio="none" style="width:30px;vertical-align:middle" viewBox="0 0 256 256" version="1.1" xmlns="http://www.w3.org/2000/svg" xmlns:xlink="http://www.w3.org/1999/xlink">
    <!-- Generator: Sketch 3.8.3 (29802) - http://www.bohemiancoding.com/sketch -->
    <title>3</title>
    <desc>Created with Sketch.</desc>
    <defs></defs>
    <g id="Manuals" stroke="none" stroke-width="1" fill="none" fill-rule="evenodd">
        <g id="3" fill="#FFFFFF">
            <path d="M128,256 C198.692448,256 256,198.692448 256,128 C256,57.307552 198.692448,0 128,0 C57.307552,0 0,57.307552 0,128 C0,198.692448 57.307552,256 128,256 Z M88.6875,193.011719 L88.6875,176.480469 C101.38548,181.511744 111.387984,184.027344 118.695312,184.027344 C127.140667,184.027344 134.013645,181.556665 139.314453,176.615234 C144.615261,171.673803 147.265625,165.279987 147.265625,157.433594 C147.265625,138.746 134.178516,129.402344 108.003906,129.402344 L100.996094,129.402344 L100.996094,117.453125 L107.195312,117.363281 C131.752727,117.363281 144.03125,108.70842 144.03125,91.3984375 C144.03125,77.8020154 135.945393,71.0039062 119.773438,71.0039062 C110.90881,71.0039062 101.145887,73.4895585 90.484375,78.4609375 L90.484375,63.0078125 C100.966198,59.4739407 111.148388,57.7070312 121.03125,57.7070312 C148.224094,57.7070312 161.820312,67.9790639 161.820312,88.5234375 C161.820312,104.156328 152.566499,115.296842 134.058594,121.945312 C155.501409,126.916692 166.222656,138.656157 166.222656,157.164062 C166.222656,169.682354 162.089885,179.505173 153.824219,186.632812 C145.558552,193.760452 134.208406,197.324219 119.773438,197.324219 C111.567667,197.324219 101.205792,195.886733 88.6875,193.011719 Z" id="Combined-Shape"></path>
        </g>
    </g>
</svg>