<?xml version="1.0" encoding="UTF-8" standalone="no"?>
<svg width="1022px" height="202px" viewBox="0 0 1022 202" version="1.1" xmlns="http://www.w3.org/2000/svg" xmlns:xlink="http://www.w3.org/1999/xlink">
    <!-- Generator: Sketch 3.8.3 (29802) - http://www.bohemiancoding.com/sketch -->
    <title>Artboard 4 Copy</title>
    <desc>Created with Sketch.</desc>
    <defs></defs>
    <g id="Page-1" stroke="none" stroke-width="1" fill="none" fill-rule="evenodd">
        <g id="Artboard-4-Copy">
            <g id="Group" transform="translate(510.500000, 100.000000) rotate(-270.000000) translate(-510.500000, -100.000000) translate(408.000000, -412.000000)">
                <rect id="Rectangle" fill="#D8D8D8" x="3" y="0.000796663458" width="48.9291073" height="1023.9992"></rect>
                <path d="M47.8066984,956.427479 L47.6526269,1024 C47.6526269,1024 130.551215,959.665083 130.551208,777.413818 C130.551201,595.162552 205,518.062399 205,518.062399 C205,518.062399 132.261689,425.529226 132.261691,211.417933 C132.261693,-2.69336039 49.9874368,0.00162431505 49.9874368,0.00162431505 L49.908835,34.4747373 C68.1345813,63.1091661 84.6407173,115.515349 84.6407163,211.417933 C84.6407143,425.529226 157.379025,518.062399 157.379025,518.062399 C157.379025,518.062399 82.9302259,595.162552 82.9302329,777.413818 C82.930236,859.235742 66.2214321,917.29078 47.8066984,956.427479 Z" id="Combined-Shape" fill="#D8D8D8"></path>
                <path d="M0.948199511,-5.68434189e-12 C0.948199511,-5.68434189e-12 86.5057689,-1.301751 86.5057669,212.624281 C86.5057649,426.550312 158.295573,519.00342 158.295573,519.00342 C158.295573,519.00342 84.8175812,596.036861 84.8175881,778.130433 C84.8175949,960.224004 0.948199511,1024.00006 0.948199511,1024.00006 L0.948199511,-5.68434189e-12 Z" id="Path-3" fill="#4A4A4A"></path>
            </g>
        </g>
    </g>
</svg>