<?xml version="1.0" encoding="UTF-8" standalone="no"?>
<svg viewBox="0 0 204 1024" version="1.1" xmlns="http://www.w3.org/2000/svg" xmlns:xlink="http://www.w3.org/1999/xlink" preserveAspectRatio="none" style="width:10vw">
    <!-- Generator: Sketch 3.8.3 (29802) - http://www.bohemiancoding.com/sketch -->
    <title>Artboard 4</title>
    <desc>Created with Sketch.</desc>
    <defs></defs>
    <g id="Page-1" stroke="none" stroke-width="1" fill="none" fill-rule="evenodd">
        <g id="Artboard-4">
            <rect id="Rectangle" fill="#D8D8D8" x="2" y="0.000796663458" width="48.9291073" height="1023.9992"></rect>
            <path d="M46.8066984,956.427479 L46.6526269,1024 C46.6526269,1024 129.551215,959.665083 129.551208,777.413818 C129.551201,595.162552 204,518.062399 204,518.062399 C204,518.062399 131.261689,425.529226 131.261691,211.417933 C131.261693,-2.69336039 48.9874368,0.00162431505 48.9874368,0.00162431505 L48.908835,34.4747373 C67.1345813,63.1091661 83.6407173,115.515349 83.6407163,211.417933 C83.6407143,425.529226 156.379025,518.062399 156.379025,518.062399 C156.379025,518.062399 81.9302259,595.162552 81.9302329,777.413818 C81.930236,859.235742 65.2214321,917.29078 46.8066984,956.427479 Z" id="Combined-Shape" fill="#D8D8D8"></path>
            <path d="M-0.0518004894,-5.57065505e-12 C-0.0518004894,-5.57065505e-12 85.5057689,-1.301751 85.5057669,212.624281 C85.5057649,426.550312 157.295573,519.00342 157.295573,519.00342 C157.295573,519.00342 83.8175812,596.036861 83.8175881,778.130433 C83.8175949,960.224004 -0.0518004894,1024.00006 -0.0518004894,1024.00006 L-0.0518004894,-5.57065505e-12 Z" id="Path-3" fill="#4A4A4A"></path>
        </g>
    </g>
</svg>